<?xml version="1.0" standalone="no"?>
<!DOCTYPE svg PUBLIC "-//W3C//DTD SVG 20010904//EN"
 "http://www.w3.org/TR/2001/REC-SVG-20010904/DTD/svg10.dtd">
<svg version="1.0" xmlns="http://www.w3.org/2000/svg"
 width="1500.000000pt" height="775.000000pt" viewBox="0 0 1500.000000 775.000000"
 preserveAspectRatio="xMidYMid meet">

<g transform="translate(0.000000,775.000000) scale(0.100000,-0.100000)"
fill="#000000" stroke="none">
<path d="M2095 6943 c-387 -32 -715 -176 -960 -420 -173 -173 -285 -390 -309
-604 -9 -76 -216 -3863 -216 -3948 0 -474 411 -890 985 -997 97 -18 272 -19
5685 -19 l5585 0 105 23 c309 68 553 195 751 392 170 168 274 359 308 565 19
118 223 3894 218 4025 -21 473 -419 858 -1002 968 -84 16 -449 17 -5600 18
-3031 0 -5528 -1 -5550 -3z m3405 -1006 c63 -33 103 -99 108 -181 5 -82 -105
-1288 -123 -1351 -22 -78 -65 -129 -145 -171 -54 -28 -201 -27 -257 3 -73 40
-113 112 -113 208 0 114 111 1281 126 1330 28 89 97 158 182 182 65 18 165 9
222 -20z m953 18 c117 -30 208 -98 242 -177 40 -97 1 -225 -83 -279 -66 -42
-127 -40 -225 7 -84 39 -114 39 -147 -3 -26 -33 -26 -83 0 -116 11 -14 84 -68
163 -120 165 -110 205 -150 255 -254 32 -68 36 -86 40 -177 13 -313 -160 -553
-448 -620 -82 -20 -244 -20 -332 -1 -198 41 -338 181 -338 335 0 114 81 228
176 248 74 16 126 2 210 -57 40 -27 84 -53 97 -56 33 -9 85 19 98 52 23 62 -8
102 -166 210 -174 120 -249 205 -290 333 -23 70 -24 203 -1 289 48 187 205
337 402 385 80 19 274 20 347 1z m-1983 -20 c367 -95 556 -451 486 -915 -59
-388 -287 -674 -611 -766 -77 -22 -521 -32 -602 -14 -66 14 -126 58 -155 112
-21 39 -23 55 -21 173 3 179 97 1178 116 1233 34 97 101 159 200 187 75 21
494 14 587 -10z m4279 15 c35 -6 80 -19 101 -30 49 -25 123 -108 143 -162 31
-80 259 -1227 260 -1304 1 -162 -101 -254 -282 -254 -135 1 -182 40 -233 191
-11 35 -25 70 -31 77 -7 8 -49 12 -147 12 -158 0 -145 7 -206 -108 -67 -127
-134 -172 -255 -172 -169 0 -270 105 -240 250 14 69 457 1236 497 1309 52 97
157 172 267 190 28 5 54 9 57 10 3 0 34 -4 69 -9z m2587 -16 c110 -28 202 -92
240 -167 10 -17 19 -61 21 -97 15 -209 -182 -351 -366 -263 -78 37 -138 41
-195 14 -123 -60 -191 -221 -184 -437 3 -100 6 -116 33 -169 57 -112 127 -134
273 -86 135 45 201 39 272 -25 53 -49 74 -106 68 -191 -9 -121 -75 -208 -203
-270 -250 -119 -597 -67 -782 117 -147 145 -213 330 -213 593 0 543 291 935
741 997 79 11 223 3 295 -16z m-3681 -9 c159 -33 302 -138 363 -267 43 -90 56
-168 49 -306 -10 -240 -103 -409 -282 -517 -91 -54 -172 -76 -318 -84 -93 -6
-132 -12 -143 -23 -11 -10 -20 -60 -29 -162 -20 -207 -56 -280 -161 -332 -47
-23 -70 -28 -133 -28 -140 0 -223 63 -245 186 -8 42 99 1250 115 1313 34 127
125 212 251 235 74 13 447 3 533 -15z m2548 5 c74 -11 130 -35 164 -72 75 -80
69 -250 -12 -345 -47 -55 -110 -84 -202 -93 -47 -5 -81 -13 -91 -23 -12 -13
-24 -109 -58 -481 -44 -497 -52 -539 -109 -617 -89 -123 -310 -141 -405 -32
-74 83 -75 109 -29 613 21 239 39 454 39 477 0 49 -17 63 -78 63 -161 0 -263
124 -233 286 23 120 102 199 224 224 60 11 709 12 790 0z m1862 -1 c54 -15
118 -82 135 -143 9 -33 11 -75 6 -139 -20 -281 -20 -310 4 -339 18 -24 29 -28
74 -28 97 0 119 40 136 255 17 212 31 257 98 328 90 93 286 104 375 19 16 -15
35 -39 43 -55 35 -66 34 -101 -27 -766 -32 -355 -62 -660 -67 -677 -25 -80
-80 -146 -147 -175 -124 -53 -270 -22 -332 70 -43 64 -47 100 -29 301 18 199
16 225 -26 254 -35 25 -101 21 -137 -9 -35 -30 -44 -69 -61 -260 -13 -154 -29
-217 -69 -272 -48 -66 -109 -96 -206 -101 -97 -5 -142 7 -192 51 -49 44 -73
99 -73 174 0 86 108 1279 120 1322 24 86 89 159 166 186 47 17 154 19 209 4z
m-3550 -2268 c235 -77 379 -231 447 -477 31 -112 31 -366 1 -504 -66 -302
-224 -521 -458 -635 -147 -72 -191 -79 -486 -80 l-255 0 -59 30 c-84 43 -117
98 -122 203 -2 45 19 324 51 670 l54 594 34 66 c38 76 83 116 160 144 48 16
78 18 308 15 233 -3 261 -6 325 -26z m1515 -3 c57 -24 79 -44 101 -93 38 -82
13 -212 -52 -272 -56 -51 -114 -67 -271 -72 -141 -6 -149 -7 -173 -32 -38 -37
-43 -88 -13 -124 24 -27 29 -29 144 -35 143 -7 183 -23 219 -85 33 -56 34
-131 1 -201 -41 -89 -115 -124 -263 -124 -105 0 -148 -15 -163 -56 -15 -39
-12 -80 9 -105 18 -23 27 -24 164 -30 136 -5 149 -7 203 -35 45 -22 63 -39 81
-73 26 -49 31 -128 12 -194 -13 -47 -69 -111 -123 -140 -40 -21 -51 -22 -386
-22 l-345 0 -50 25 c-64 32 -110 93 -125 166 -17 82 87 1240 119 1325 41 107
134 183 246 199 27 4 178 5 335 2 252 -4 290 -7 330 -24z m1015 -3 c190 -54
314 -169 367 -339 19 -58 23 -93 22 -191 -2 -205 -54 -344 -174 -465 -115
-116 -241 -166 -442 -177 -90 -4 -121 -10 -132 -22 -8 -10 -19 -71 -29 -166
-16 -164 -33 -217 -89 -274 -48 -49 -104 -73 -180 -79 -168 -12 -267 74 -268
231 0 107 98 1185 115 1256 27 115 97 197 200 234 44 15 79 17 300 13 198 -3
263 -7 310 -21z m1371 16 c128 -13 186 -46 229 -130 23 -45 17 -179 -9 -231
-46 -88 -119 -137 -229 -150 -95 -11 -105 -16 -116 -59 -5 -20 -25 -225 -46
-456 -20 -231 -43 -447 -51 -480 -37 -149 -131 -228 -274 -229 -115 -1 -184
39 -226 129 -32 68 -31 111 11 578 45 494 44 485 20 503 -10 8 -36 14 -57 14
-146 0 -237 88 -238 229 0 86 16 134 63 187 82 94 126 102 522 103 171 0 351
-4 401 -8z m380 -1250 c105 -48 149 -174 108 -311 -22 -74 -100 -152 -174
-174 -186 -55 -333 44 -332 224 1 119 56 208 157 256 64 31 179 33 241 5z"/>
<path d="M4213 5485 c-33 -23 -41 -65 -68 -371 -37 -415 -36 -420 49 -418 65
1 111 40 158 135 49 98 71 205 72 354 0 146 -19 218 -74 277 -31 31 -44 38
-76 38 -22 0 -49 -7 -61 -15z"/>
<path d="M8571 5122 c-35 -128 -61 -239 -57 -247 4 -12 23 -15 80 -15 42 0 78
5 81 11 7 11 -23 404 -34 453 -6 24 -19 -16 -70 -202z"/>
<path d="M7385 5469 c-35 -17 -47 -48 -57 -156 -10 -94 -9 -105 7 -123 23 -26
104 -27 145 -3 88 51 100 236 19 278 -32 17 -84 18 -114 4z"/>
<path d="M8221 3205 c-27 -35 -28 -40 -56 -359 -37 -412 -36 -416 48 -416 114
0 201 152 227 394 27 243 -36 406 -155 406 -35 0 -48 -5 -64 -25z"/>
<path d="M10755 3206 c-43 -19 -56 -56 -62 -172 -6 -98 -5 -102 18 -117 63
-45 168 4 198 92 24 71 6 161 -38 188 -31 19 -84 24 -116 9z"/>
</g>
</svg>
